<svg t="1676798375230" class="icon" viewBox="0 0 1024 1024" version="1.1" xmlns="http://www.w3.org/2000/svg" p-id="1575" width="30" height="30"><path d="M811.478991 712.779086L312.309654 212.777836l181.613082-181.911718a105.141048 105.141048 0 0 1 148.805833 0l350.363504 350.939444a105.546339 105.546339 0 0 1 0 149.061806l-181.613082 181.911718zM416.234829 212.777836l395.244162 395.905426 129.650495-129.885137a31.932674 31.932674 0 0 0 0-44.944651L590.765982 82.91403a31.783356 31.783356 0 0 0-44.880658 0l-129.650495 129.863806z" fill="#666666" p-id="1576"></path><path d="M152.219664 1023.765358c-35.302989 0-68.110239-13.417269-92.257057-37.734736l-22.291011-22.333674C13.226142 939.379481-0.127133 906.358921 0.000853 870.906614c0.127987-38.268014 16.275638-76.109405 44.368712-103.989168a4602.613894 4602.613894 0 0 1 50.384085-49.018894c27.687783-26.663889 53.797063-51.791938 71.373898-70.584647 41.211707-43.899427 47.355067-102.389334 21.651078-208.724925-12.990647-53.626414 11.689449-114.761379 73.101719-181.399771 41.723654-45.221956 85.943048-77.282616 87.90551-78.583814l42.918196 59.791105a589.933215 589.933215 0 0 0-77.559921 69.66741c-41.979627 45.861889-61.540256 86.092365-54.970274 113.43885 14.697136 60.985647 19.795271 106.207603 16.531611 146.544735-4.202229 51.663952-22.568316 94.112863-56.164816 130.013124-18.899365 20.093907-45.669909 45.989876-74.018956 73.208374-16.659598 16.040996-33.852474 32.721925-49.594834 48.229643-14.291845 14.078533-22.440329 32.999229-22.568316 51.791938 0 15.785022 5.631413 30.226185 15.998334 40.614436l22.312342 22.355005c10.36692 10.36692 24.680096 16.147651 40.422456 16.147651h0.127987c18.771378 0 37.670743-8.276471 51.706614-22.610978 18.2381-18.387418 37.393438-39.291907 56.036829-59.407145 23.357567-25.234705 45.264618-49.146881 63.502719-66.233101 77.943881-73.485679 179.65062-61.518925 277.795063-37.734736 27.431809 6.7193 65.614498-10.900198 107.466139-49.274867 36.220227-33.276534 61.433601-69.411436 61.540256-69.795396l60.367045 41.915633a553.158379 553.158379 0 0 1-72.312467 82.018123c-25.703989 23.677534-51.301323 41.531674-75.960088 53.242454-34.513738 16.296969-67.576961 20.755171-98.421748 13.267952-90.273263-21.821727-160.623268-26.941194-210.218102 19.837933-16.275638 15.401062-37.393438 38.268014-59.833767 62.585481-19.027351 20.627185-38.58798 41.915634-57.743319 61.241621-27.815769 28.135736-65.614498 44.304718-103.797187 44.432704 0.127987-0.127987 0-0.127987-0.127987-0.127986z" fill="#666666" p-id="1577"></path></svg>