<svg t="1678783753780" class="icon" viewBox="0 0 1024 1024" version="1.1" xmlns="http://www.w3.org/2000/svg" p-id="7671" width="30" height="30"><path d="M511.405459 959.010847C264.150122 959.009823 64.092737 758.974951 64.044642 511.671519 63.995523 262.876106 268.437775 59.550281 520.420787 64.395636c246.366084 4.737908 440.33275 208.477148 438.72616 451.29236C957.533192 759.509117 757.331521 959.01187 511.405459 959.010847zM511.665379 572.258409c-62.947657-61.081147-125.384685-120.68464-186.538487-181.575452-19.584034-19.500123-41.572838-23.990391-63.395866 0.094144-18.409279 20.318768-19.47147 36.057217 0.035816 55.379285 19.72832 19.541055 40.031738 38.499849 59.869552 57.930387 53.641711 52.541657 107.170858 105.197924 160.741961 157.813259 17.907858 17.588587 39.974433 17.629519 57.837266 0.306992 22.018479-21.352307 44.326555-42.407855 66.23554-63.871703 50.983161-49.944506 101.825107-100.034321 152.679331-150.110833 22.956851-22.606881 21.290909-46.070268-4.530177-65.733097-15.505136-11.80793-35.639708-11.673877-48.640814 0.683569-21.050432 20.007683-42.041512 40.08188-62.828954 60.361763C599.467097 486.130819 555.952025 528.877389 511.665379 572.258409z" p-id="7672" fill="#707070"></path></svg>