<svg t="1676803296422" class="head-logo" viewBox="0 0 1024 1024" version="1.1" xmlns="http://www.w3.org/2000/svg" p-id="7009" width="40" height="40"><path d="M405.333333 149.333333l67.562667 184.234667h91.776L632.234667 149.333333h64l-67.562667 184.234667h110.229333a64 64 0 0 1 64 64v407.274667a64 64 0 0 1-64 64H285.098667a64 64 0 0 1-64-64v-407.253334a64 64 0 0 1 64-64l123.797333-0.021333L341.333333 149.333333h64z m333.568 248.234667H285.098667v407.274667h453.802666v-407.253334zM192 496.490667v213.333333H128v-213.333333h64z m698.176 0v213.333333h-64v-213.333333h64zM405.333333 519.744a42.666667 42.666667 0 1 1 0 85.333333 42.666667 42.666667 0 0 1 0-85.333333z m213.333334 0a42.666667 42.666667 0 1 1 0 85.333333 42.666667 42.666667 0 0 1 0-85.333333z" fill="#666666" p-id="7010"></path></svg>