<svg t="1678367245293" class="icon" viewBox="0 0 1024 1024" version="1.1" xmlns="http://www.w3.org/2000/svg" p-id="3458" width="30" height="30"><path d="M384 85.333333a42.666667 42.666667 0 1 1 0 85.333334H213.333333l-5.802666 0.426666A42.538667 42.538667 0 0 0 170.666667 213.333333v597.333334l0.426666 5.802666A42.538667 42.538667 0 0 0 213.333333 853.333333h170.666667a42.666667 42.666667 0 0 1 0 85.333334H213.333333a128 128 0 0 1-128-128V213.333333a128 128 0 0 1 128-128z m330.965333 185.301334l211.2 211.2a42.666667 42.666667 0 0 1 0 60.330666l-211.2 211.2a42.666667 42.666667 0 1 1-60.330666-60.330666l138.325333-138.410667L384 554.666667a42.666667 42.666667 0 0 1 0-85.333334l408.917333-0.042666-138.24-138.325334a42.666667 42.666667 0 0 1 60.288-60.330666z" fill="#707070" p-id="3459"></path></svg>