<svg t="1676853459384" class="icon" viewBox="0 0 1040 1024" version="1.1" xmlns="http://www.w3.org/2000/svg" p-id="4441" width="30" height="30"><path d="M762.651364 721.625113l-244.51961-75.945717 334.929146-381.136569-90.452202 457.082286zM902.041621 174.986613a21.333067 21.333067 0 0 0-22.485052-2.005309L155.981614 538.032741a21.333067 21.333067 0 1 0 2.986629 39.338175L387.488053 651.951317a21.333067 21.333067 0 1 0 13.226502-40.532826L221.388796 552.795223l577.699446-291.40969-334.715816 380.79524 0.426661 0.426661a20.906405 20.906405 0 0 0-5.759928 13.653163l-0.085332 176.339129a21.333067 21.333067 0 0 0 42.666133 0l0.085332-147.368825 270.929947 84.180281a21.418399 21.418399 0 0 0 27.263659-16.21313L910.148187 196.149015a21.546397 21.546397 0 0 0-8.106566-21.162402z" fill="#707070" p-id="4442"></path></svg>