<svg t="1677656114179" class="icon" viewBox="0 0 1024 1024" version="1.1" xmlns="http://www.w3.org/2000/svg" p-id="3376" width="30" height="30"><path d="M504 688c97.2 0 176-78.8 176-176s-78.8-176-176-176-176 78.8-176 176 78.8 176 176 176z m0 48c-123.712 0-224-100.288-224-224s100.288-224 224-224 224 100.288 224 224-100.288 224-224 224z m0-576h16a16 16 0 0 1 16 16v64a16 16 0 0 1-16 16h-16a16 16 0 0 1-16-16v-64a16 16 0 0 1 16-16z m251.248 97.44l11.312 11.312a16 16 0 0 1 0 22.624L721.28 336.64a16 16 0 0 1-22.624 0l-11.312-11.312a16 16 0 0 1 0-22.624l45.264-45.264a16 16 0 0 1 22.624 0zM864 504v16a16 16 0 0 1-16 16h-64a16 16 0 0 1-16-16v-16a16 16 0 0 1 16-16h64a16 16 0 0 1 16 16z m-97.44 251.248l-11.312 11.312a16 16 0 0 1-22.624 0L687.36 721.28a16 16 0 0 1 0-22.624l11.312-11.312a16 16 0 0 1 22.624 0l45.264 45.264a16 16 0 0 1 0 22.624zM520 864h-16a16 16 0 0 1-16-16v-64a16 16 0 0 1 16-16h16a16 16 0 0 1 16 16v64a16 16 0 0 1-16 16z m-251.248-97.44l-11.312-11.312a16 16 0 0 1 0-22.624l45.264-45.264a16 16 0 0 1 22.624 0l11.312 11.312a16 16 0 0 1 0 22.624L291.36 766.56a16 16 0 0 1-22.624 0zM160 520v-16a16 16 0 0 1 16-16h64a16 16 0 0 1 16 16v16a16 16 0 0 1-16 16h-64a16 16 0 0 1-16-16z m97.44-251.248l11.312-11.312a16 16 0 0 1 22.624 0l45.264 45.264a16 16 0 0 1 0 22.624l-11.312 11.312a16 16 0 0 1-22.624 0L257.44 291.36a16 16 0 0 1 0-22.624z" fill="#707070" p-id="3377"></path></svg>