<svg t="1678853802178" class="icon" viewBox="0 0 1024 1024" version="1.1" xmlns="http://www.w3.org/2000/svg" p-id="2570" width="30" height="30"><path d="M504.32 819.2c-117.248 0-225.792-68.096-276.992-174.08l-20.992-43.52 46.08 15.36c26.112 8.704 53.248 12.8 80.896 12.8 141.312 0 256-114.688 256-256 0-46.08-12.288-91.136-35.328-130.048l-24.576-41.472 47.104 11.264c138.752 33.28 236.032 156.16 236.032 299.008-1.024 168.96-138.752 306.688-308.224 306.688z m-216.064-152.064C337.92 735.744 418.304 778.24 504.32 778.24c146.944 0 266.24-119.296 266.24-266.24 0-108.032-64-202.752-160.256-244.224 12.8 33.792 19.456 69.632 19.456 105.984 0 163.84-133.12 296.96-296.96 296.96-14.848 0-30.208-1.024-44.544-3.584z" p-id="2571" fill="#707070"></path></svg>